<svg width="48" height="48" viewBox="0 0 48 48" fill="none" xmlns="http://www.w3.org/2000/svg">
<path d="M48 4.88623L38.5308 13.2216C38.6777 17.6341 38.5276 20.8185 38.2711 23.6689C37.9915 26.7763 37.6055 29.9933 35.9024 32.6075C32.749 37.4476 27.385 38.5574 23.5377 38.5574C19.2806 38.5574 10.1233 35.4098 10.1233 24.4311C10.1233 13.2216 18.0984 9.83607 23.2131 9.83607H33.4426L45.7044 0H27.959C24.4906 0 20.981 0.131653 17.6609 1.13527C1.18489 6.11566 -0.992531 21.0174 0.317804 28.4551C0.796045 34.491 7.70638 48 23.5377 48C34.9369 48 41.4965 42.0769 44.9824 36.1012C47.7464 31.3629 48 25.6883 48 20.2028V4.88623Z" fill="#0D6CF2"/>
</svg>
